<svg width="48" height="48" viewBox="0 0 48 48" fill="none" xmlns="http://www.w3.org/2000/svg">
<path d="M24 10.7197C31.3333 10.7197 37.333 16.7067 37.333 24.0801C37.3401 27.2609 36.21 30.3392 34.1465 32.7598C32.0829 35.1804 29.222 36.7841 26.0801 37.2803V27.9463H29.1865L29.7871 24.0801H26.0801V21.5732C26.0801 20.52 26.6 19.4933 28.2529 19.4932H29.9336V16.2002C29.9336 16.2002 28.4133 15.9463 26.96 15.9463C23.9067 15.9463 21.9199 17.7871 21.9199 21.1338V24.0801H18.5332V27.9463H21.9199V37.2803C15.5466 36.2803 10.667 30.7467 10.667 24.0801C10.667 16.7067 16.6667 10.7197 24 10.7197Z" fill="#BEBEC0"/>
</svg>
