<svg width="48" height="48" viewBox="0 0 48 48" fill="none" xmlns="http://www.w3.org/2000/svg">
<path d="M29.5996 10.667C33.8663 10.667 37.333 14.1337 37.333 18.4004V29.5996C37.333 31.6506 36.5186 33.6181 35.0684 35.0684C33.6181 36.5186 31.6506 37.333 29.5996 37.333H18.4004C14.1337 37.333 10.667 33.8663 10.667 29.5996V18.4004C10.667 16.3494 11.4814 14.3819 12.9316 12.9316C14.3819 11.4814 16.3494 10.667 18.4004 10.667H29.5996ZM18.1338 13.333C16.8607 13.333 15.6394 13.8391 14.7393 14.7393C13.8391 15.6394 13.333 16.8607 13.333 18.1338V29.8662C13.333 32.5195 15.4805 34.667 18.1338 34.667H29.8662C31.1392 34.667 32.3606 34.1609 33.2607 33.2607C34.1609 32.3606 34.667 31.1392 34.667 29.8662V18.1338C34.667 15.4805 32.5195 13.333 29.8662 13.333H18.1338ZM24 17.333C25.7681 17.333 27.4636 18.0359 28.7139 19.2861C29.9641 20.5364 30.667 22.2319 30.667 24C30.667 25.7681 29.9641 27.4636 28.7139 28.7139C27.4636 29.9641 25.7681 30.667 24 30.667C22.2319 30.667 20.5364 29.9641 19.2861 28.7139C18.0359 27.4636 17.333 25.7681 17.333 24C17.333 22.2319 18.0359 20.5364 19.2861 19.2861C20.5364 18.0359 22.2319 17.333 24 17.333ZM24 20C22.9391 20 21.922 20.4217 21.1719 21.1719C20.4217 21.922 20 22.9391 20 24C20 25.0609 20.4217 26.078 21.1719 26.8281C21.922 27.5783 22.9391 28 24 28C25.0609 28 26.078 27.5783 26.8281 26.8281C27.5783 26.078 28 25.0609 28 24C28 22.9391 27.5783 21.922 26.8281 21.1719C26.078 20.4217 25.0609 20 24 20ZM31 15.333C31.442 15.333 31.8661 15.5087 32.1787 15.8213C32.4913 16.1338 32.667 16.558 32.667 17C32.667 17.442 32.4913 17.8662 32.1787 18.1787C31.8661 18.4913 31.442 18.667 31 18.667C30.558 18.667 30.1339 18.4913 29.8213 18.1787C29.5087 17.8662 29.333 17.442 29.333 17C29.333 16.558 29.5087 16.1338 29.8213 15.8213C30.1339 15.5087 30.558 15.333 31 15.333Z" fill="#BEBEC0"/>
</svg>
