<svg width="48" height="48" viewBox="0 0 48 48" fill="none" xmlns="http://www.w3.org/2000/svg">
<path d="M33.333 12C34.0403 12 34.7187 12.2812 35.2188 12.7812C35.7188 13.2813 36 13.9597 36 14.667V33.333C36 34.0403 35.7188 34.7187 35.2188 35.2188C34.7187 35.7188 34.0403 36 33.333 36H14.667C13.9597 36 13.2813 35.7188 12.7812 35.2188C12.2812 34.7187 12 34.0403 12 33.333V14.667C12 13.9597 12.2812 13.2813 12.7812 12.7812C13.2813 12.2812 13.9597 12 14.667 12H33.333ZM15.333 32.667H19.0264V21.5068H15.333V32.667ZM28.3203 21.2529C27.1871 21.2529 25.8666 21.9464 25.2266 22.9863V21.5068H21.5068V32.667H25.2266V26.0938C25.2266 25.0671 26.0534 24.2266 27.0801 24.2266C27.5751 24.2266 28.0503 24.4234 28.4004 24.7734C28.7503 25.1235 28.9463 25.5988 28.9463 26.0938V32.667H32.667V25.5996C32.6669 24.4469 32.2086 23.3414 31.3936 22.5264C30.5785 21.7113 29.473 21.253 28.3203 21.2529ZM17.1729 14.9199C16.5754 14.92 16.0025 15.1576 15.5801 15.5801C15.1576 16.0025 14.92 16.5754 14.9199 17.1729C14.9199 18.4127 15.9331 19.4128 17.1729 19.4131C17.7669 19.4131 18.3368 19.1769 18.7568 18.7568C19.1769 18.3368 19.4131 17.7669 19.4131 17.1729C19.4128 15.9331 18.4127 14.9199 17.1729 14.9199Z" fill="#BEBEC0"/>
</svg>
