<svg width="48" height="48" viewBox="0 0 48 48" fill="none" xmlns="http://www.w3.org/2000/svg">
<path d="M24 14.667C29.5867 14.667 33.0671 14.8796 34.4404 15.2529C35.6402 15.5863 36.4137 16.3598 36.7471 17.5596C36.9204 18.1862 37.0401 19.0271 37.1201 20.0938C37.2134 21.1602 37.2529 22.08 37.2529 22.8799L37.333 24C37.333 26.92 37.1204 29.0671 36.7471 30.4404C36.4137 31.6402 35.6402 32.4137 34.4404 32.7471C33.8138 32.9204 32.6663 33.0401 30.9062 33.1201C29.1731 33.2134 27.5866 33.2529 26.1201 33.2529L24 33.333C18.4133 33.333 14.9329 33.1204 13.5596 32.7471C12.3598 32.4137 11.5863 31.6402 11.2529 30.4404C11.0796 29.8138 10.9599 28.9729 10.8799 27.9062C10.7866 26.8398 10.7471 25.92 10.7471 25.1201L10.667 24C10.667 21.08 10.8796 18.9329 11.2529 17.5596C11.5863 16.3598 12.3598 15.5863 13.5596 15.2529C14.1862 15.0796 15.3338 14.9599 17.0938 14.8799C18.8269 14.7866 20.4134 14.7471 21.8799 14.7471L24 14.667ZM21.333 28L28.2529 24L21.333 20V28Z" fill="#BEBEC0"/>
</svg>
